<?xml version="1.0" encoding="UTF-8" standalone="no"?>
<svg
   version="1.0"
   width="1149.6801pt"
   height="448.63889pt"
   viewBox="0 0 1149.68 448.63889"
   preserveAspectRatio="xMidYMid"
   id="svg3"
   sodipodi:docname="icon.svg"
   inkscape:version="1.4.2 (f4327f4, 2025-05-13)"
   xmlns:inkscape="http://www.inkscape.org/namespaces/inkscape"
   xmlns:sodipodi="http://sodipodi.sourceforge.net/DTD/sodipodi-0.dtd"
   xmlns="http://www.w3.org/2000/svg"
   xmlns:svg="http://www.w3.org/2000/svg">
  <defs
     id="defs3" />
  <sodipodi:namedview
     id="namedview3"
     pagecolor="#000000"
     bordercolor="#000000"
     borderopacity="0.25"
     inkscape:showpageshadow="2"
     inkscape:pageopacity="0.0"
     inkscape:pagecheckerboard="0"
     inkscape:deskcolor="#d1d1d1"
     inkscape:document-units="pt"
     showgrid="false"
     inkscape:zoom="0.23835784"
     inkscape:cx="1246.0257"
     inkscape:cy="1371.8869"
     inkscape:window-width="1305"
     inkscape:window-height="1012"
     inkscape:window-x="3049"
     inkscape:window-y="231"
     inkscape:window-maximized="0"
     inkscape:current-layer="svg3">
    <inkscape:page
       x="-2.6860169e-14"
       y="0"
       width="1149.6799"
       height="448.63889"
       id="page2"
       margin="0"
       bleed="0" />
  </sodipodi:namedview>
  <metadata
     id="metadata1">
Created by potrace 1.10, written by Peter Selinger 2001-2011
</metadata>
  <g
     transform="matrix(0.1,0,0,-0.1,-99.416463,1384.6375)"
     fill="#000000"
     stroke="none"
     id="g3"
     style="fill:#ffffff">
    <path
       d="m 1865,13843 c -110,-22 -160,-44 -223,-99 -53,-45 -83,-92 -105,-164 -15,-50 -17,-153 -17,-1115 0,-583 0,-1066 0,-1072 0,-10 1096,-13 5444,-13 4343,0 5446,3 5454,13 5,7 6,21 1,32 -4,11 -8,32 -8,47 -1,28 -26,115 -63,218 -11,30 -23,71 -27,90 -4,19 -12,44 -18,55 -6,11 -34,75 -62,142 -74,176 -141,302 -254,473 -235,359 -526,652 -872,877 -149,97 -147,96 -195,121 -25,12 -58,32 -75,42 -16,11 -37,22 -45,26 -8,3 -40,17 -70,31 -100,45 -134,61 -175,76 -22,8 -59,22 -82,31 -112,42 -137,50 -243,76 -19,4 -48,13 -65,18 -48,16 -168,42 -195,42 -13,0 -58,6 -100,14 -212,41 -140,40 -4140,42 -2115,1 -3854,0 -3865,-3 z m 1295,-605 c 0,-7 0,-251 0,-542 0,-415 -3,-531 -12,-538 -7,-4 -260,-7 -563,-5 l -550,2 -3,548 -2,547 h 565 c 445,0 565,-3 565,-12 z m 1908,-527 c 1,-386 -1,-538 -9,-547 -9,-12 -108,-14 -555,-14 h -544 l -14,23 c -11,18 -13,111 -12,537 0,283 5,521 9,528 7,9 126,12 565,10 l 557,-3 z m 1910,0 c 1,-386 -1,-538 -9,-547 -9,-12 -108,-14 -555,-14 -480,0 -544,2 -558,16 -14,14 -16,76 -16,534 0,285 3,526 6,534 6,15 62,16 568,14 l 561,-3 z m 2863,519 c 216,-45 379,-134 539,-292 103,-103 210,-273 249,-398 31,-101 40,-143 51,-232 12,-103 7,-128 -30,-148 -29,-16 -2582,-14 -2598,2 -9,9 -12,143 -12,543 0,293 3,535 7,538 3,4 388,7 854,7 805,0 851,-1 940,-20 z"
       id="path1"
       style="fill:#ffffff" />
    <path
       d="m 1523,11178 c -4,-7 -6,-143 -5,-303 3,-297 11,-363 48,-406 8,-8 14,-19 14,-24 0,-12 90,-94 123,-111 15,-8 55,-23 90,-34 61,-19 128,-20 5161,-20 4663,0 5104,1 5155,16 31,9 68,23 83,30 14,8 31,14 38,14 18,0 124,85 153,124 36,47 74,124 94,189 29,95 9,496 -25,525 -13,9 -1121,12 -5468,12 -4351,0 -5454,-3 -5461,-12 z"
       id="path2"
       style="fill:#ffffff" />
    <path
       d="m 1158,9836 c -133,-41 -204,-212 -140,-336 42,-81 77,-106 174,-129 34,-8 1586,-11 5555,-11 5819,0 5542,-2 5623,42 87,46 128,157 103,279 -9,47 -105,141 -159,157 -58,17 -11101,16 -11156,-2 z"
       id="path3"
       style="fill:#ffffff" />
  </g>
  <rect
     style="fill:#00ffff;stroke-width:0.78125"
     id="rect4"
     width="117.99486"
     height="117.17545"
     x="103.47681"
     y="58.436844" />
  <rect
     style="fill:#00ffff;stroke-width:0.78125"
     id="rect4-2"
     width="117.99486"
     height="117.17545"
     x="293.13425"
     y="58.7164" />
  <rect
     style="fill:#00ffff;stroke-width:0.78125"
     id="rect4-5"
     width="117.99486"
     height="117.17545"
     x="481.88577"
     y="58.522629" />
  <path
     style="fill:#00ffff;stroke-width:0.75"
     d="m 700.13751,59.296732 c 0,110.128538 0,110.915168 0,110.915168 h 273.74805 c 0,0 -4.7198,-111.701798 -111.70185,-111.701798 -161.2596,0 -162.0462,0.78663 -162.0462,0.78663 z"
     id="path4" />
</svg>
